<?xml version="1.0" encoding="utf-8"?>
<!-- Generator: Adobe Illustrator 26.5.0, SVG Export Plug-In . SVG Version: 6.00 Build 0)  -->
<svg version="1.1" id="Layer_1" xmlns="http://www.w3.org/2000/svg" xmlns:xlink="http://www.w3.org/1999/xlink" x="0px" y="0px"
	 viewBox="0 0 100 106" style="enable-background:new 0 0 100 106;" xml:space="preserve">
<style type="text/css">
	.st0{fill:#E7E7E9;}
	.st1{fill:#D8D8D8;}
	.st2{fill:#C4C4C4;}
	.st3{fill:#AAAAAF;}
	.st4{fill:#72BF98;}
	.st5{fill:#B23847;}
	.st6{fill:#FFB39F;}
</style>
<g>
	<path class="st0" d="M50,105.8L50,105.8c-27.6,0-50-22.4-50-50l0,0c0-27.6,22.4-50,50-50l0,0c27.6,0,50,22.4,50,50l0,0
		C100,83.4,77.6,105.8,50,105.8z"/>
	<path class="st1" d="M26.4,42c0,0-4.4-0.6-4.7-0.7v-1.4c1.4-0.8,1.3-2.1,1.4-4.2c4.2-8.2-12.5-5.7-5.6,2c0,0,0.3,1,1.1,1.7l0.1,1.9
		c-0.2,0-4.6,1.3-4.6,1.3l0,0c-0.7-0.6-3,6.3-2.9,8.6c0,4.3-1.9,5,1.1,11.7c-1,2.4,1.6,3.4,3.1,3.5L13.8,86c0.1,0,0.5,0.1,0.6,0.1
		c-0.8,1.3-0.8,3-0.8,3h4.3C17,83.5,21,64.3,21.2,63.6L22,89.1h4.2L26.4,42z"/>
	<path class="st2" d="M38,37.8c0,0-5.5-0.8-5.8-0.9v-1.7c1.8-1,1.6-2.7,1.7-5.2c5.5-9.9-17.2-8.3-5.6,4.6l0.1,2.4
		c-0.3,0-5.7,1.6-5.7,1.6l0,0c-0.9-0.7-3.8,7.9-3.7,10.7c0,5.4-2.3,6.3,1.3,14.7c-1.2,3.2,1.9,4.1,3.8,4.4l-2,24.5
		c0.2,0.1,0.3,0.1,0.5,0.1c-0.9,1.7-0.7,3.8-0.7,3.8h5.4c-1.2-1,4-29.9,4.2-31.9l1,31.9h10V96l0,0l-4.8-3.2L38,37.8z"/>
	<path class="st3" d="M34.9,68.7c0.4,1.3,4.6,2,4.9,2.1c0,0-2.4,33-2.6,33.4c2.1,0.6,4.3,1,6.6,1.3c-0.2-0.9,5.6-39.2,5.6-39.2
		s1.2,38.5,1.2,39.5c3.8,0,7.5-0.5,11.1-1.4C59,88.2,58,44.8,58,30.9l0,0l0,0l0,0c-1.4-0.2-7.1-1.1-7.6-1.1l-0.1-2.2
		c2.3-1.2,2.1-3.5,2.3-6.8c6.7-9.3-14.1-12.4-11.4-0.7c0.4,1.7,0.8,4.5,2.3,3.9c0,0,0.4,1.6,1.8,2.7l0.1,3.1
		C45,29.9,38,31.9,38,31.9l0,0c-3.3,0.2-5.2,18.1-5.7,21.2c0,0-0.6,5.7,2.6,11.9C34.2,66.1,34.6,67.6,34.9,68.7z"/>
	<path class="st4" d="M86.7,40.2c-2.6-11-7-16.7-7.2-16.8l0,0l0,0l0,0c-15.4-4.7-24.8,1.2-24.8,1.2s-5,6.8-5.9,17.3
		c2,0.6,5.6,1.5,7.6,1.7c0.1-0.5,1.3,16.6,1.3,16.6c14.1,2.6,21.7,0,21.7,0c0.2-6.5,0.2-12.5,0.3-17.8C81.6,42,84.8,40.9,86.7,40.2z
		"/>
	<path class="st5" d="M59.4,12.5C59.1,11.6,55,4,63.3,0.7C69-1.6,77.7,3.6,73,10.6C72.4,11.7,59.4,12.5,59.4,12.5z M62.9,104.1
		l5.9-37l1.2,34.5c3.2-1.4,6.1-3.1,8.9-5.1l-0.2-36.2c-1.8,0.5-9,2-20.8-0.1l-3.8,45.3C57.2,105.4,60.1,104.9,62.9,104.1z"/>
	<path class="st6" d="M86.4,64c0.7,1.2,0.5,3.1,0.2,4.5c-0.3,1.6-4.6,2.7-4.6,2.7c-1.4,0.1-0.7-2.8-0.7-2.8
		c-1.9-1.1,0.8-4.6,1.5-5.1c0-0.6,0.8-11.1-2.8-21c1.8-0.4,4.3-1.2,6-1.8C87,44.3,89.4,56.9,86.4,64z M71.8,5.4
		c-1.5-1-4.5-1.9-7.8,0c-3.2,1.9,0,4.1-2,6.9c-3.5-4.6-3.5,3.5-0.5,2.6c0,0,0.5,1.9,2.2,3.3l0.1,4.1c1.9,3.6,5.9,1.4,6.2,0.1v-3.2
		C74.7,18.3,72.9,6.1,71.8,5.4z M53.8,63.2c0-0.6-1.2-10.2,1.5-19.8c-1.8-0.3-4.3-0.9-6-1.4c-0.9,5-2,15.8,1,22.1
		c-0.7,1.3-0.3,3.1,0,4.5c0.4,1.6,4.7,2.5,4.7,2.5c1.4,0,0.6-2.9,0.6-2.9C57.3,67,54.5,63.7,53.8,63.2z"/>
</g>
</svg>
