<?xml version="1.0" encoding="utf-8"?>
<!-- Generator: Adobe Illustrator 26.5.0, SVG Export Plug-In . SVG Version: 6.00 Build 0)  -->
<svg version="1.1" id="Layer_1" xmlns="http://www.w3.org/2000/svg" xmlns:xlink="http://www.w3.org/1999/xlink" x="0px" y="0px"
	 viewBox="0 0 100 100" style="enable-background:new 0 0 100 100;" xml:space="preserve">
<style type="text/css">
	.st0{fill:#E6E6E8;}
	.st1{fill:#959599;}
	.st2{fill:#AAAAAF;}
	.st3{fill:#C4C4C4;}
	.st4{fill:#E7E7E9;}
	.st5{fill:#B23847;}
	.st6{fill:#D84E55;}
	.st7{fill:#72BF98;}
	.st8{fill:none;stroke:#FFFFFF;stroke-width:4.1517;stroke-linecap:round;stroke-linejoin:round;stroke-miterlimit:10;}
	.st9{fill:#D8D8D8;}
	.st10{fill:#FFB39F;}
	.st11{fill:#FFFFFF;}
</style>
<circle class="st0" cx="50" cy="50" r="50"/>
<g>
	<path class="st2" d="M74,63.2H14.8c-1.5,0-2.7-1.2-2.7-2.7V29.3c0-1.5,1.2-2.7,2.7-2.7H74c1.5,0,2.7,1.2,2.7,2.7v31.2
		C76.7,62,75.5,63.2,74,63.2z"/>
	<path class="st3" d="M69,60.1H19.8c0-2.7-2.2-4.8-4.8-4.8V34.5c2.7,0,4.8-2.2,4.8-4.8H69c0,2.7,2.2,4.8,4.8,4.8v20.8
		C71.1,55.3,69,57.4,69,60.1z"/>
	<circle class="st2" cx="44.4" cy="44.9" r="11.8"/>
</g>
<path class="st6" d="M79.2,79.5H26.5c-2.1,0-3.7-1.7-3.7-3.7V42c0-2.1,1.7-3.7,3.7-3.7h52.6c2.1,0,3.7,1.7,3.7,3.7v33.7
	C82.9,77.8,81.2,79.5,79.2,79.5z"/>
<rect x="22.8" y="46.1" class="st5" width="60.1" height="11.1"/>
<g>
	<path class="st7" d="M82,10.2l-13.9,6c-1,0.4-1.6,1.4-1.6,2.5v11.5c0,1.3,0.2,2.6,0.5,3.8c1.2,4.2,4.9,12.6,15.9,17.1v0
		c11-4.4,14.7-12.9,15.9-17.1c0.4-1.3,0.5-2.5,0.5-3.8V18.6c0-1.1-0.6-2-1.6-2.5l-13.9-6C83.2,9.9,82.6,9.9,82,10.2z"/>
	<path class="st11" d="M91.7,27.2C91,26.5,90,26.3,89,26.4V23c0.1-4.6-5.3-7.7-9.2-5.3c-3.2,1.6-3.2,5.6-3.1,8.7
		c-1.7-0.2-3.5,0.9-3.4,2.7c0,0,0,6.8,0,6.8c0,1.5,1.3,2.8,2.7,2.7c0,0,13.7,0,13.7,0c1.5,0,2.8-1.3,2.7-2.7
		C92.4,34.4,93.1,28.5,91.7,27.2z M84.3,34c-0.2,0.2-0.5,0.4-0.8,0.5c-0.1,0.6,0.4,2.1-0.8,1.8c-0.7,0-0.4-1.4-0.5-1.8
		c-2.2-0.6-1.6-4.1,0.6-4C84.7,30.4,85.6,32.8,84.3,34z M85.6,26.4h-5.5l0-3.4c-0.1-2,2.4-3.4,4.1-2.4
		C86.2,21.5,85.5,24.7,85.6,26.4z"/>
</g>
</svg>
